<svg xmlns="http://www.w3.org/2000/svg" viewBox="0 0 64 64">
  <rect width="64" height="64" rx="12" fill="#1f66d1"/>
  <path fill="none" stroke="#fff" stroke-width="5" stroke-linecap="round" stroke-linejoin="round" d="M18 33c5-5 9-14 20-14 8 0 16 5 18 13 1 5-4 11-10 15l3 8-15-4c-8 2-17-2-21-9"/>
  <path fill="none" stroke="#fff" stroke-width="5" stroke-linecap="round" stroke-linejoin="round" d="M42 20c6 4 9 10 9 16 0 7-5 11-10 8"/>
  <circle cx="25" cy="29" r="4.5" fill="#fff"/>
  <circle cx="38" cy="29" r="4.5" fill="#fff"/>
  <path fill="none" stroke="#fff" stroke-width="4" stroke-linecap="round" d="M29 29h5m9 0h7"/>
  <path fill="none" stroke="#ff70c8" stroke-width="3" stroke-linecap="round" d="M14 20l-7-5m12-2l-2-8m-1 21l-9-1"/>
</svg>
